<svg width="80" height="80" viewBox="0 0 24 24" fill="none" xmlns="http://www.w3.org/2000/svg">
    <circle cx="12" cy="12" r="12" fill="#003B5C"/>
    <path d="M17.2801 11.7494C17.2484 11.6675 17.2008 11.5928 17.1401 11.5294L13.1401 7.52937C13.0779 7.46722 13.0041 7.41791 12.9229 7.38427C12.8417 7.35063 12.7547 7.33331 12.6667 7.33331C12.4892 7.33331 12.319 7.40384 12.1934 7.52937C12.1313 7.59153 12.0819 7.66533 12.0483 7.74654C12.0147 7.82776 11.9974 7.9148 11.9974 8.00271C11.9974 8.18024 12.0679 8.35051 12.1934 8.47604L15.0601 11.336H7.33341C7.1566 11.336 6.98703 11.4063 6.86201 11.5313C6.73699 11.6563 6.66675 11.8259 6.66675 12.0027C6.66675 12.1795 6.73699 12.3491 6.86201 12.4741C6.98703 12.5991 7.1566 12.6694 7.33341 12.6694H15.0601L12.1934 15.5294C12.1309 15.5913 12.0813 15.6651 12.0475 15.7463C12.0136 15.8276 11.9962 15.9147 11.9962 16.0027C11.9962 16.0907 12.0136 16.1779 12.0475 16.2591C12.0813 16.3403 12.1309 16.4141 12.1934 16.476C12.2554 16.5385 12.3291 16.5881 12.4104 16.622C12.4916 16.6558 12.5787 16.6732 12.6667 16.6732C12.7548 16.6732 12.8419 16.6558 12.9231 16.622C13.0044 16.5881 13.0781 16.5385 13.1401 16.476L17.1401 12.476C17.2008 12.4126 17.2484 12.3379 17.2801 12.256C17.3468 12.0937 17.3468 11.9117 17.2801 11.7494Z" fill="white"/>
</svg>
